<svg width="527" height="455" viewBox="0 0 527 455" fill="none" xmlns="http://www.w3.org/2000/svg">
<line x1="525.428" y1="1.19454" x2="406.428" y2="101.195" stroke="white"/>
<line x1="406.044" y1="100.316" x2="525.044" y2="85.3157" stroke="white"/>
<line x1="406.503" y1="100.508" x2="487.503" y2="206.508" stroke="white"/>
<line x1="486.684" y1="206.544" x2="524.684" y2="146.544" stroke="white"/>
<line x1="267.398" y1="0.405874" x2="406.398" y2="100.406" stroke="white"/>
<line x1="220.433" y1="1.19046" x2="162.433" y2="51.1905" stroke="white"/>
<line x1="162.207" y1="50.3219" x2="406.207" y2="100.322" stroke="white"/>
<line x1="162.57" y1="50.6243" x2="234.57" y2="228.624" stroke="white"/>
<line x1="233.808" y1="228.411" x2="405.808" y2="100.411" stroke="white"/>
<line x1="234.063" y1="228.314" x2="487.063" y2="206.314" stroke="white"/>
<line x1="162.497" y1="51.1236" x2="0.497017" y2="254.124" stroke="white"/>
<line x1="0.0530847" y1="253.315" x2="234.053" y2="228.315" stroke="white"/>
<line x1="179.636" y1="378.642" x2="233.636" y2="228.642" stroke="white"/>
<line x1="234.555" y1="228.592" x2="320.555" y2="404.592" stroke="white"/>
<line x1="180.197" y1="378.32" x2="320.197" y2="404.32" stroke="white"/>
<line x1="320.225" y1="404.326" x2="525.225" y2="454.326" stroke="white"/>
<line x1="319.724" y1="404.489" x2="486.724" y2="206.489" stroke="white"/>
<line x1="487.579" y1="206.648" x2="525.579" y2="316.648" stroke="white"/>
<line x1="487.157" y1="206.417" x2="525.244" y2="217.331" stroke="white"/>
</svg>
