<svg width="104" height="100" viewBox="0 0 104 100" fill="none" xmlns="http://www.w3.org/2000/svg">
<path d="M100.667 75.4667V77C100.665 80.594 99.5009 84.0911 97.3489 86.9697C95.197 89.8483 92.1722 91.9541 88.7256 92.9732C85.2791 93.9922 81.5955 93.8698 78.2242 92.6243C74.8528 91.3788 71.9745 89.0768 70.0183 86.0618C68.0622 83.0467 67.133 79.4801 67.3695 75.8939C67.606 72.3076 68.9954 68.8939 71.3305 66.1618C73.6656 63.4297 76.8214 61.5256 80.327 60.7336C83.8327 59.9415 87.5005 60.3039 90.7834 61.7667M100.667 63.6667L84 80.35L79 75.35" stroke="white" stroke-width="2" stroke-linecap="round" stroke-linejoin="round"/>
<path d="M57.2083 87.5C56.4758 88.7628 55.4243 89.811 54.1593 90.5397C52.8942 91.2683 51.4599 91.6519 50 91.6519C48.5401 91.6519 47.1058 91.2683 45.8407 90.5397C44.5757 89.811 43.5242 88.7628 42.7917 87.5M75 33.3333C75 26.7029 72.3661 20.3441 67.6777 15.6556C62.9893 10.9672 56.6304 8.33331 50 8.33331C43.3696 8.33331 37.0107 10.9672 32.3223 15.6556C27.6339 20.3441 25 26.7029 25 33.3333C25 62.5 12.5 70.8333 12.5 70.8333H87.5C87.5 70.8333 75 62.5 75 33.3333Z" stroke="white" stroke-width="4" stroke-linecap="round" stroke-linejoin="round"/>
</svg>
